<?xml version="1.0" encoding="UTF-8" standalone="no"?>
<svg
   xmlns:svg="http://www.w3.org/2000/svg"
   xmlns="http://www.w3.org/2000/svg"
   version="1.0"
   width="580"
   height="88">
  <g stroke="none">
    <rect width="288" height="36" x="290" y="50" style="fill:#ffbfbf"/>
    <rect width="288" height="36" x="2" y="50" style="fill:#ffea7f;"/>
    <rect width="144" height="36" x="434" y="14" style="fill:#ffea7f;"/>
    <rect width="144" height="36" x="290" y="14" style="fill:#87cfff;"/>
    <rect width="72" height="36" x="218" y="14" style="fill:#ffbfbf;"/>
    <rect width="18" height="36" x="200" y="14" style="fill:#87cfff;"/>
    <rect width="18" height="36" x="182" y="14" style="fill:#cccccc;"/>
    <rect width="36" height="36" x="146" y="14" style="fill:#87cfff;"/>
    <rect width="144" height="36" x="2" y="14" style="fill:#ffea7f;"/>
  </g>
  <g stroke="black" stroke-width="1.5px" fill="none">
    <path d="M 2,6 L 2,86 L 578,86 L 578,6"/>
    <path d="M 2,14 L 578,14"/>
    <path d="M 2,50 L 578,50"/>
    <path d="M 146,6 L 146,58"/>
    <path d="M 218,6 L 218,58"/>
    <path d="M 290,6 L 290,86"/>
    <path d="M 434,6 L 434,58"/>
    <path d="M 182,14 L 182,58"/>
    <path d="M 200,14 L 200,58"/>
    <path d="M 20,14 L 20,22"/>
    <path d="M 38,14 L 38,22"/>
    <path d="M 56,14 L 56,22"/>
    <path d="M 74,14 L 74,22"/>
    <path d="M 92,14 L 92,22"/>
    <path d="M 110,14 L 110,22"/>
    <path d="M 128,14 L 128,22"/>
    <path d="M 164,14 L 164,58"/>
    <path d="M 20,50 L 20,58"/>
    <path d="M 38,50 L 38,58"/>
    <path d="M 56,50 L 56,58"/>
    <path d="M 74,50 L 74,58"/>
    <path d="M 92,50 L 92,58"/>
    <path d="M 110,50 L 110,58"/>
    <path d="M 128,50 L 128,58"/>
    <path d="M 236,50 L 236,58"/>
    <path d="M 254,50 L 254,58"/>
    <path d="M 272,50 L 272,58"/>
    <path d="M 236,14 L 236,22"/>
    <path d="M 254,14 L 254,22"/>
    <path d="M 272,14 L 272,22"/>
    <path d="M 308,14 L 308,58"/>
    <path d="M 326,14 L 326,22"/>
    <path d="M 326,50 L 326,58"/>
    <path d="M 344,14 L 344,58"/>
    <path d="M 362,6 L 362,58"/>
    <path d="M 380,14 L 380,22"/>
    <path d="M 398,14 L 398,22"/>
    <path d="M 416,14 L 416,22"/>
    <path d="M 452,14 L 452,22"/>
    <path d="M 470,14 L 470,22"/>
    <path d="M 488,14 L 488,22"/>
    <path d="M 506,14 L 506,22"/>
    <path d="M 524,14 L 524,22"/>
    <path d="M 542,14 L 542,22"/>
    <path d="M 560,14 L 560,22"/>
    <path d="M 380,50 L 380,58"/>
    <path d="M 398,50 L 398,58"/>
    <path d="M 416,50 L 416,58"/>
    <path d="M 452,50 L 452,58"/>
    <path d="M 470,50 L 470,58"/>
    <path d="M 488,50 L 488,58"/>
    <path d="M 506,50 L 506,58"/>
    <path d="M 524,50 L 524,58"/>
    <path d="M 542,50 L 542,58"/>
    <path d="M 560,50 L 560,58"/>
  </g>
  <g font-family="Arial">
    <g font-size="10px">
      <text x="6.125" y="10">31</text>
      <text x="132" y="10">24</text>
      <text x="150" y="10">23</text>
      <text x="204.125" y="10">20</text>
      <text x="222" y="10">19</text>
      <text x="276" y="10">16</text>
      <text x="294" y="10">15</text>
      <text x="348" y="10">12</text>
      <text x="366" y="10">11</text>
      <text x="424" y="10">8</text>
      <text x="438.125" y="10">7</text>
      <text x="568" y="10">0</text>
    </g>
    <g font-size="11px">
      <text x="20.86377" y="39" style="font-style:italic">Base address (24-31)</text>
      <text x="150.77295" y="39" style="font-style:italic">G</text>
      <text x="165.22534" y="39" style="font-style:italic">DB</text>
      <text x="205.33154" y="39">A</text>
      <text x="222.896" y="39" style="font-style:italic">Limit (16-19)</text>
      <text x="295.14624" y="39">P</text>
      <text x="315.06445" y="39">DPL</text>
      <text x="349.37183" y="39">S</text>
      <text x="385.8667" y="39">Type</text>
      <text x="452.25146" y="39">Base address (16-23)</text>
      <text x="87.976074" y="75">Base address (Bit 0-15)</text>
      <text x="374.60645" y="75">Segment Limit (Bit 0-15)</text>
    </g>
  </g>
</svg>
